<mxfile host="app.diagrams.net" agent="Mozilla/5.0 (Macintosh; Intel Mac OS X 10_15_7) AppleWebKit/537.36 (KHTML, like Gecko) Chrome/128.0.0.0 Safari/537.36" version="24.7.15">
  <diagram name="Страница — 1" id="aIX2Qcr1_E8BmRC23h6U">
    <mxGraphModel dx="1593" dy="703" grid="1" gridSize="10" guides="1" tooltips="1" connect="1" arrows="1" fold="1" page="1" pageScale="1" pageWidth="827" pageHeight="1169" math="0" shadow="0">
      <root>
        <mxCell id="0" />
        <mxCell id="1" parent="0" />
        <mxCell id="S9Dtbln9a1oVzTOgqyUR-7" value="" style="edgeStyle=orthogonalEdgeStyle;rounded=0;orthogonalLoop=1;jettySize=auto;html=1;" edge="1" parent="1" source="S9Dtbln9a1oVzTOgqyUR-2" target="S9Dtbln9a1oVzTOgqyUR-6">
          <mxGeometry relative="1" as="geometry" />
        </mxCell>
        <mxCell id="S9Dtbln9a1oVzTOgqyUR-2" value="" style="rounded=0;whiteSpace=wrap;html=1;" vertex="1" parent="1">
          <mxGeometry x="280" y="280" width="120" height="60" as="geometry" />
        </mxCell>
        <mxCell id="S9Dtbln9a1oVzTOgqyUR-5" style="edgeStyle=orthogonalEdgeStyle;rounded=0;orthogonalLoop=1;jettySize=auto;html=1;" edge="1" parent="1" source="S9Dtbln9a1oVzTOgqyUR-4" target="S9Dtbln9a1oVzTOgqyUR-2">
          <mxGeometry relative="1" as="geometry" />
        </mxCell>
        <mxCell id="S9Dtbln9a1oVzTOgqyUR-4" value="" style="rounded=0;whiteSpace=wrap;html=1;" vertex="1" parent="1">
          <mxGeometry x="320" y="200" width="40" height="40" as="geometry" />
        </mxCell>
        <mxCell id="S9Dtbln9a1oVzTOgqyUR-9" value="" style="edgeStyle=orthogonalEdgeStyle;rounded=0;orthogonalLoop=1;jettySize=auto;html=1;" edge="1" parent="1" source="S9Dtbln9a1oVzTOgqyUR-6" target="S9Dtbln9a1oVzTOgqyUR-8">
          <mxGeometry relative="1" as="geometry" />
        </mxCell>
        <mxCell id="S9Dtbln9a1oVzTOgqyUR-6" value="" style="whiteSpace=wrap;html=1;rounded=0;" vertex="1" parent="1">
          <mxGeometry x="280" y="380" width="120" height="60" as="geometry" />
        </mxCell>
        <mxCell id="S9Dtbln9a1oVzTOgqyUR-11" value="" style="edgeStyle=orthogonalEdgeStyle;rounded=0;orthogonalLoop=1;jettySize=auto;html=1;" edge="1" parent="1" source="S9Dtbln9a1oVzTOgqyUR-8" target="S9Dtbln9a1oVzTOgqyUR-10">
          <mxGeometry relative="1" as="geometry" />
        </mxCell>
        <mxCell id="S9Dtbln9a1oVzTOgqyUR-8" value="" style="whiteSpace=wrap;html=1;rounded=0;" vertex="1" parent="1">
          <mxGeometry x="280" y="480" width="120" height="60" as="geometry" />
        </mxCell>
        <mxCell id="S9Dtbln9a1oVzTOgqyUR-13" value="" style="edgeStyle=orthogonalEdgeStyle;rounded=0;orthogonalLoop=1;jettySize=auto;html=1;" edge="1" parent="1" source="S9Dtbln9a1oVzTOgqyUR-10" target="S9Dtbln9a1oVzTOgqyUR-12">
          <mxGeometry relative="1" as="geometry" />
        </mxCell>
        <mxCell id="S9Dtbln9a1oVzTOgqyUR-10" value="" style="whiteSpace=wrap;html=1;rounded=0;" vertex="1" parent="1">
          <mxGeometry x="280" y="580" width="120" height="60" as="geometry" />
        </mxCell>
        <mxCell id="S9Dtbln9a1oVzTOgqyUR-15" value="" style="edgeStyle=orthogonalEdgeStyle;rounded=0;orthogonalLoop=1;jettySize=auto;html=1;" edge="1" parent="1" source="S9Dtbln9a1oVzTOgqyUR-12" target="S9Dtbln9a1oVzTOgqyUR-14">
          <mxGeometry relative="1" as="geometry" />
        </mxCell>
        <mxCell id="S9Dtbln9a1oVzTOgqyUR-12" value="" style="whiteSpace=wrap;html=1;rounded=0;" vertex="1" parent="1">
          <mxGeometry x="280" y="680" width="120" height="60" as="geometry" />
        </mxCell>
        <mxCell id="S9Dtbln9a1oVzTOgqyUR-14" value="" style="whiteSpace=wrap;html=1;rounded=0;" vertex="1" parent="1">
          <mxGeometry x="280" y="780" width="120" height="60" as="geometry" />
        </mxCell>
      </root>
    </mxGraphModel>
  </diagram>
</mxfile>
